# Blender v2.78 (sub 0) OBJ File: 'helicoptero_1.1.blend'
# www.blender.org
mtllib helicoptero_1.2.mtl
o Cube.003
v -0.045543 5.047118 -0.089533
v -0.045543 5.134971 -0.089533
v -0.478632 5.134971 -0.089732
v -0.478632 5.047118 -0.089732
v -0.045583 5.047118 -0.001680
v -0.045583 5.134970 -0.001680
v -0.478672 5.134970 -0.001879
v -0.478672 5.047118 -0.001879
v 0.143417 5.047118 -0.213210
v 0.143417 5.134971 -0.213210
v 0.143319 5.047118 -0.001593
v 0.143319 5.134970 -0.001593
v 2.906322 5.047118 -0.211939
v 2.906322 5.134971 -0.211939
v 2.906224 5.047118 -0.000322
v 2.906224 5.134970 -0.000322
v 2.958252 5.046810 -0.164685
v 2.958252 5.135278 -0.164685
v 2.958177 5.047118 -0.000298
v 2.958177 5.134970 -0.000298
vn -0.0015 -0.7069 0.7072
vn 0.5761 -0.5776 0.5783
vn 0.5761 0.5776 0.5783
vn -0.0015 0.7069 0.7072
vn -0.1795 -0.7775 -0.6027
vn -0.5771 -0.5773 -0.5776
vn -0.5771 0.5773 -0.5776
vn -0.1795 0.7775 -0.6027
vn -0.0003 -0.7071 0.7071
vn -0.0003 0.7071 0.7071
vn -0.2174 0.6480 -0.7299
vn -0.2174 -0.6480 -0.7299
vn -0.5776 -0.5773 0.5771
vn -0.5776 0.5773 0.5771
vn 0.2790 0.6339 -0.7213
vn 0.2790 -0.6339 -0.7213
vn 0.7117 0.6282 -0.3145
vn 0.7117 -0.6282 -0.3145
usemtl Material
s 1
f 15//1 19//2 20//3 16//4
f 1//5 4//6 3//7 2//8
f 5//9 11//9 12//10 6//10
f 2//8 10//11 9//12 1//5
f 1//5 9//12 11//9 5//9
f 6//10 12//10 10//11 2//8
f 8//13 5//9 6//10 7//14
f 4//6 8//13 7//14 3//7
f 3//7 7//14 6//10 2//8
f 11//9 15//1 16//4 12//10
f 1//5 5//9 8//13 4//6
f 10//11 14//15 13//16 9//12
f 12//10 16//4 14//15 10//11
f 9//12 13//16 15//1 11//9
f 18//17 20//3 19//2 17//18
f 14//15 18//17 17//18 13//16
f 16//4 20//3 18//17 14//15
f 13//16 17//18 19//2 15//1
o Cube.002
v -1.039710 5.047118 -0.588742
v -1.039710 5.134971 -0.588742
v -0.817045 5.134971 -0.217277
v -0.817045 5.047118 -0.217277
v -0.964358 5.047118 -0.633909
v -0.964358 5.134970 -0.633909
v -0.741692 5.134970 -0.262445
v -0.741692 5.047118 -0.262445
v -1.242985 5.047118 -0.687134
v -1.242985 5.134971 -0.687134
v -1.061479 5.047118 -0.795933
v -1.061479 5.134970 -0.795933
v -2.663486 5.047118 -3.056906
v -2.663486 5.134971 -3.056906
v -2.481981 5.047118 -3.165705
v -2.481981 5.134970 -3.165705
v -2.649688 5.046810 -3.125748
v -2.649688 5.135278 -3.125748
v -2.508691 5.047118 -3.210266
v -2.508691 5.134970 -3.210266
vn 0.6072 -0.7070 -0.3626
vn 0.1995 -0.5776 -0.7916
vn 0.1995 0.5776 -0.7916
vn 0.6072 0.7069 -0.3626
vn -0.4244 -0.7775 0.4641
vn -0.1983 -0.5773 0.7920
vn -0.1983 0.5773 0.7920
vn -0.4244 0.7775 0.4641
vn 0.6065 -0.7071 -0.3635
vn 0.6065 0.7071 -0.3635
vn -0.5140 0.6480 0.5620
vn -0.5140 -0.6480 0.5620
vn 0.7920 -0.5773 0.1983
vn 0.7920 0.5773 0.1983
vn -0.7620 0.6339 0.1319
vn -0.7620 -0.6339 0.1319
vn -0.6359 0.6282 -0.4484
vn -0.6359 -0.6282 -0.4484
usemtl Material
s 1
f 35//19 39//20 40//21 36//22
f 21//23 24//24 23//25 22//26
f 25//27 31//27 32//28 26//28
f 22//26 30//29 29//30 21//23
f 21//23 29//30 31//27 25//27
f 26//28 32//28 30//29 22//26
f 28//31 25//27 26//28 27//32
f 24//24 28//31 27//32 23//25
f 23//25 27//32 26//28 22//26
f 31//27 35//19 36//22 32//28
f 21//23 25//27 28//31 24//24
f 30//29 34//33 33//34 29//30
f 32//28 36//22 34//33 30//29
f 29//30 33//34 35//19 31//27
f 38//35 40//21 39//20 37//36
f 34//33 38//35 37//36 33//34
f 36//22 40//21 38//35 34//33
f 33//34 37//36 39//20 35//19
o Cube.001
v -0.979301 5.047118 0.599179
v -0.979301 5.134971 0.599179
v -0.761670 5.134971 0.224743
v -0.761670 5.047118 0.224743
v -1.055256 5.047118 0.555032
v -1.055256 5.134970 0.555032
v -0.837625 5.134970 0.180596
v -0.837625 5.047118 0.180596
v -0.967224 5.047118 0.824692
v -0.967224 5.134971 0.824692
v -1.150182 5.047118 0.718352
v -1.150182 5.134970 0.718352
v -2.355609 5.047118 3.213421
v -2.355609 5.134971 3.213421
v -2.538567 5.047118 3.107082
v -2.538567 5.134970 3.107082
v -2.422549 5.046810 3.234605
v -2.422549 5.135278 3.234605
v -2.564673 5.047118 3.151999
v -2.564673 5.134970 3.151999
vn -0.6109 -0.7069 -0.3564
vn -0.7894 -0.5776 0.2078
vn -0.7894 0.5776 0.2078
vn -0.6109 0.7069 -0.3564
vn 0.6114 -0.7775 0.1473
vn 0.7893 -0.5773 -0.2090
vn 0.7893 0.5773 -0.2090
vn 0.6114 0.7775 0.1473
vn -0.6113 -0.7071 -0.3553
vn -0.6113 0.7071 -0.3553
vn 0.7404 0.6480 0.1784
vn 0.7404 -0.6480 0.1784
vn -0.2090 -0.5773 -0.7893
vn -0.2090 0.5773 -0.7893
vn 0.4837 0.6339 0.6035
vn 0.4837 -0.6339 0.6035
vn -0.0853 0.6282 0.7734
vn -0.0853 -0.6282 0.7734
usemtl Material
s 1
f 55//37 59//38 60//39 56//40
f 41//41 44//42 43//43 42//44
f 45//45 51//45 52//46 46//46
f 42//44 50//47 49//48 41//41
f 41//41 49//48 51//45 45//45
f 46//46 52//46 50//47 42//44
f 48//49 45//45 46//46 47//50
f 44//42 48//49 47//50 43//43
f 43//43 47//50 46//46 42//44
f 51//45 55//37 56//40 52//46
f 41//41 45//45 48//49 44//42
f 50//47 54//51 53//52 49//48
f 52//46 56//40 54//51 50//47
f 49//48 53//52 55//37 51//45
f 58//53 60//39 59//38 57//54
f 54//51 58//53 57//54 53//52
f 56//40 60//39 58//53 54//51
f 53//52 57//54 59//38 55//37
o Cube
v -0.579053 4.667286 0.191590
v -0.776339 4.667286 0.191590
v -0.473918 4.941791 0.239235
v -0.863911 4.941791 0.239234
v -0.473918 5.111864 0.241234
v -0.863911 5.111864 0.241233
v -0.579837 5.212340 0.128601
v -0.769701 5.212340 0.128601
v -0.579053 4.667286 -0.191590
v -0.776339 4.667286 -0.191590
v -0.473918 4.941791 -0.239235
v -0.863911 4.941791 -0.239234
v -0.473918 5.111864 -0.241234
v -0.863911 5.111864 -0.241233
v -0.579837 5.212340 -0.128601
v -0.769701 5.212340 -0.128601
v -0.579054 4.667286 0.000000
v -0.776339 4.667286 0.000000
v -0.473918 4.941791 0.000000
v -0.863911 4.941791 0.000000
v -0.473918 5.111864 0.000000
v -0.863911 5.111864 0.000000
v -0.579837 5.212340 0.000000
v -0.769701 5.212340 0.000000
vn 0.4557 -0.7103 0.5364
vn 0.7122 -0.1792 0.6787
vn -0.7105 -0.1610 0.6850
vn -0.4772 -0.6984 0.5335
vn -0.9881 -0.1538 0.0000
vn -0.6445 0.3925 0.6561
vn -0.9299 0.3677 0.0000
vn 0.6447 0.4007 0.6509
vn -0.3177 0.9078 0.2736
vn -0.3975 0.9176 0.0000
vn 0.2915 0.9158 0.2763
vn -0.5899 -0.8074 0.0000
vn 0.5667 -0.8239 0.0000
vn 0.9833 -0.1819 0.0000
vn 0.9187 0.3948 0.0000
vn 0.3705 0.9288 0.0000
vn 0.4557 -0.7103 -0.5364
vn -0.4772 -0.6984 -0.5335
vn -0.7105 -0.1610 -0.6850
vn 0.7122 -0.1792 -0.6787
vn -0.6445 0.3925 -0.6561
vn 0.6447 0.4007 -0.6509
vn -0.3177 0.9078 -0.2736
vn 0.2915 0.9158 -0.2763
usemtl Material
s 1
f 61//55 63//56 64//57 62//58
f 80//59 64//57 66//60 82//61
f 64//57 63//56 65//62 66//60
f 82//61 66//60 68//63 84//64
f 66//60 65//62 67//65 68//63
f 61//55 62//58 78//66 77//67
f 62//58 64//57 80//59 78//66
f 63//56 61//55 77//67 79//68
f 63//56 79//68 81//69 65//62
f 67//65 83//70 84//64 68//63
f 65//62 81//69 83//70 67//65
f 69//71 70//72 72//73 71//74
f 80//59 82//61 74//75 72//73
f 72//73 74//75 73//76 71//74
f 82//61 84//64 76//77 74//75
f 74//75 76//77 75//78 73//76
f 69//71 77//67 78//66 70//72
f 70//72 78//66 80//59 72//73
f 71//74 79//68 77//67 69//71
f 71//74 73//76 81//69 79//68
f 75//78 76//77 84//64 83//70
f 73//76 75//78 83//70 81//69
