# Blender v2.78 (sub 0) OBJ File: 'helicoptero_1.1.blend'
# www.blender.org
mtllib helicoptero_1.2.mtl
o Cube
v 0.093520 -0.316034 0.191590
v -0.103765 -0.316034 0.191590
v 0.198656 -0.041530 0.239235
v -0.191338 -0.041530 0.239234
v 0.198656 0.128543 0.241234
v -0.191338 0.128543 0.241233
v 0.092737 0.229019 0.128601
v -0.097128 0.229019 0.128601
v 0.093520 -0.316034 -0.191590
v -0.103765 -0.316034 -0.191590
v 0.198656 -0.041530 -0.239235
v -0.191338 -0.041530 -0.239234
v 0.198656 0.128543 -0.241234
v -0.191338 0.128543 -0.241233
v 0.092737 0.229019 -0.128601
v -0.097128 0.229019 -0.128601
v 0.093520 -0.316034 0.000000
v -0.103765 -0.316034 0.000000
v 0.198656 -0.041530 0.000000
v -0.191338 -0.041530 0.000000
v 0.198656 0.128543 0.000000
v -0.191338 0.128543 0.000000
v 0.092737 0.229019 0.000000
v -0.097128 0.229019 0.000000
vt 0.0000 0.0000
vt 1.0000 1.0000
vt 0.0000 1.0000
vt 1.0000 0.0000
vt 0.0000 1.0000
vt 0.0000 0.0000
vt 1.0000 0.0000
vt 0.0000 1.0000
vt 0.0000 0.0000
vt 0.0000 0.0000
vt 1.0000 1.0000
vt 0.0000 1.0000
vt 0.0000 0.0000
vt 1.0000 1.0000
vt 0.0000 1.0000
vt 1.0000 0.0000
vt 0.0000 1.0000
vt 0.0000 0.0000
vt 1.0000 1.0000
vt 0.0000 1.0000
vt 1.0000 0.0000
vt 0.0000 1.0000
vt 0.0000 0.0000
vt 1.0000 1.0000
vt 0.0000 1.0000
vt 0.0000 0.0000
vt 1.0000 1.0000
vt 1.0000 0.0000
vt 0.0000 1.0000
vt 0.0000 0.0000
vt 0.0000 0.0000
vt 1.0000 1.0000
vt 0.0000 1.0000
vt 1.0000 0.0000
vt 0.0000 1.0000
vt 1.0000 0.0000
vt 0.0000 0.0000
vt 1.0000 1.0000
vt 0.0000 1.0000
vt 0.0000 0.0000
vt 1.0000 1.0000
vt 0.0000 1.0000
vt 1.0000 0.0000
vt 0.0000 1.0000
vt 0.0000 0.0000
vt 1.0000 0.0000
vt 0.0000 1.0000
vt 0.0000 0.0000
vt 0.0000 0.0000
vt 0.0000 1.0000
vt 1.0000 0.0000
vt 0.0000 1.0000
vt 0.0000 0.0000
vt 1.0000 1.0000
vt 1.0000 1.0000
vt 1.0000 0.0000
vt 1.0000 0.0000
vt 1.0000 1.0000
vt 1.0000 1.0000
vt 1.0000 0.0000
vt 1.0000 1.0000
vt 1.0000 0.0000
vt 1.0000 1.0000
vt 1.0000 1.0000
vt 1.0000 0.0000
vt 1.0000 0.0000
vt 1.0000 0.0000
vt 1.0000 0.0000
vn 0.4557 -0.7103 0.5364
vn -0.7105 -0.1610 0.6850
vn -0.4772 -0.6984 0.5335
vn -0.9299 0.3677 0.0000
vn -0.9881 -0.1538 0.0000
vn 0.7122 -0.1792 0.6787
vn -0.6445 0.3925 0.6561
vn -0.3177 0.9078 0.2736
vn -0.3975 0.9176 0.0000
vn 0.2915 0.9158 0.2763
vn 0.5667 -0.8239 0.0000
vn -0.5899 -0.8074 0.0000
vn 0.9833 -0.1819 0.0000
vn 0.9187 0.3948 0.0000
vn 0.6447 0.4007 0.6509
vn 0.4557 -0.7103 -0.5364
vn -0.7105 -0.1610 -0.6850
vn 0.7122 -0.1792 -0.6787
vn -0.6445 0.3925 -0.6561
vn -0.3177 0.9078 -0.2736
vn 0.2915 0.9158 -0.2763
vn 0.6447 0.4007 -0.6509
vn -0.4772 -0.6984 -0.5335
vn 0.3705 0.9288 0.0000
usemtl Material
s 1
f 1/1/1 4/2/2 2/3/3
f 4/4/2 22/5/4 20/6/5
f 3/7/6 6/8/7 4/9/2
f 22/10/4 8/11/8 24/12/9
f 6/13/7 7/14/10 8/15/8
f 2/16/3 17/17/11 1/1/1
f 2/18/3 20/19/5 18/20/12
f 1/21/1 19/22/13 3/23/6
f 3/23/6 21/24/14 5/25/15
f 7/26/10 24/27/9 8/15/8
f 21/28/14 7/29/10 5/30/15
f 9/31/16 12/32/17 11/33/18
f 22/34/4 12/35/17 20/6/5
f 14/36/19 11/33/18 12/37/17
f 22/10/4 16/38/20 14/39/19
f 14/40/19 15/41/21 13/42/22
f 17/43/11 10/44/23 9/31/16
f 10/45/23 20/19/5 12/35/17
f 19/46/13 9/47/16 11/48/18
f 11/48/18 21/24/14 19/22/13
f 15/49/21 24/27/9 23/50/24
f 15/51/21 21/52/14 13/53/22
f 1/1/1 3/7/6 4/2/2
f 4/4/2 6/54/7 22/5/4
f 3/7/6 5/55/15 6/8/7
f 22/10/4 6/56/7 8/11/8
f 6/13/7 5/57/15 7/14/10
f 2/16/3 18/58/12 17/17/11
f 2/18/3 4/4/2 20/19/5
f 1/21/1 17/59/11 19/22/13
f 3/23/6 19/46/13 21/24/14
f 7/26/10 23/60/24 24/27/9
f 21/28/14 23/61/24 7/29/10
f 9/31/16 10/62/23 12/32/17
f 22/34/4 14/63/19 12/35/17
f 14/36/19 13/64/22 11/33/18
f 22/10/4 24/65/9 16/38/20
f 14/40/19 16/66/20 15/41/21
f 17/43/11 18/58/12 10/44/23
f 10/45/23 18/67/12 20/19/5
f 19/46/13 17/59/11 9/47/16
f 11/48/18 13/68/22 21/24/14
f 15/49/21 16/66/20 24/27/9
f 15/51/21 23/61/24 21/52/14
