# Blender v2.78 (sub 0) OBJ File: 'helicoptero_1.1.blend'
# www.blender.org
mtllib newrotor.mtl
o Cube.003
v -0.979301 5.047118 0.599179
v -0.979301 5.134971 0.599179
v -0.761670 5.134971 0.224743
v -0.761670 5.047118 0.224743
v -1.055256 5.047118 0.555032
v -1.055256 5.134970 0.555032
v -0.837625 5.134970 0.180596
v -0.837625 5.047118 0.180596
v -0.967224 5.047118 0.824692
v -0.967224 5.134971 0.824692
v -1.150182 5.047118 0.718352
v -1.150182 5.134970 0.718352
v -2.355609 5.047118 3.213421
v -2.355609 5.134971 3.213421
v -2.538567 5.047118 3.107082
v -2.538567 5.134970 3.107082
v -2.422549 5.046810 3.234605
v -2.422549 5.135278 3.234605
v -2.564673 5.047118 3.151999
v -2.564673 5.134970 3.151999
v -0.045543 5.047118 -0.089533
v -0.045543 5.134971 -0.089533
v -0.478632 5.134971 -0.089732
v -0.478632 5.047118 -0.089732
v -0.045583 5.047118 -0.001680
v -0.045583 5.134970 -0.001680
v -0.478672 5.134970 -0.001879
v -0.478672 5.047118 -0.001879
v 0.143417 5.047118 -0.213210
v 0.143417 5.134971 -0.213210
v 0.143319 5.047118 -0.001593
v 0.143319 5.134970 -0.001593
v 2.906322 5.047118 -0.211939
v 2.906322 5.134971 -0.211939
v 2.906224 5.047118 -0.000322
v 2.906224 5.134970 -0.000322
v 2.958252 5.046810 -0.164685
v 2.958252 5.135278 -0.164685
v 2.958177 5.047118 -0.000298
v 2.958177 5.134970 -0.000298
v -1.039710 5.047118 -0.588742
v -1.039710 5.134971 -0.588742
v -0.817045 5.134971 -0.217277
v -0.817045 5.047118 -0.217277
v -0.964358 5.047118 -0.633909
v -0.964358 5.134970 -0.633909
v -0.741692 5.134970 -0.262445
v -0.741692 5.047118 -0.262445
v -1.242985 5.047118 -0.687134
v -1.242985 5.134971 -0.687134
v -1.061479 5.047118 -0.795933
v -1.061479 5.134970 -0.795933
v -2.663486 5.047118 -3.056906
v -2.663486 5.134971 -3.056906
v -2.481981 5.047118 -3.165705
v -2.481981 5.134970 -3.165705
v -2.649688 5.046810 -3.125748
v -2.649688 5.135278 -3.125748
v -2.508691 5.047118 -3.210266
v -2.508691 5.134970 -3.210266
vn -0.6109 -0.7069 -0.3564
vn -0.7894 -0.5776 0.2078
vn -0.7894 0.5776 0.2078
vn -0.6109 0.7069 -0.3564
vn 0.6114 -0.7775 0.1473
vn 0.7893 -0.5773 -0.2090
vn 0.7893 0.5773 -0.2090
vn 0.6114 0.7775 0.1473
vn -0.6113 -0.7071 -0.3553
vn -0.6113 0.7071 -0.3553
vn 0.7404 0.6480 0.1784
vn 0.7404 -0.6480 0.1784
vn -0.2090 -0.5773 -0.7893
vn -0.2090 0.5773 -0.7893
vn 0.4837 0.6339 0.6035
vn 0.4837 -0.6339 0.6035
vn -0.0853 0.6282 0.7734
vn -0.0853 -0.6282 0.7734
vn -0.0015 -0.7069 0.7072
vn 0.5761 -0.5776 0.5783
vn 0.5761 0.5776 0.5783
vn -0.0015 0.7069 0.7072
vn -0.1795 -0.7775 -0.6027
vn -0.5771 -0.5773 -0.5776
vn -0.5771 0.5773 -0.5776
vn -0.1795 0.7775 -0.6027
vn -0.0003 -0.7071 0.7071
vn -0.0003 0.7071 0.7071
vn -0.2174 0.6480 -0.7299
vn -0.2174 -0.6480 -0.7299
vn -0.5776 -0.5773 0.5771
vn -0.5776 0.5773 0.5771
vn 0.2790 0.6339 -0.7213
vn 0.2790 -0.6339 -0.7213
vn 0.7117 0.6282 -0.3145
vn 0.7117 -0.6282 -0.3145
vn 0.6072 -0.7070 -0.3626
vn 0.1995 -0.5776 -0.7916
vn 0.1995 0.5776 -0.7916
vn 0.6072 0.7069 -0.3626
vn -0.4244 -0.7775 0.4641
vn -0.1983 -0.5773 0.7920
vn -0.1983 0.5773 0.7920
vn -0.4244 0.7775 0.4641
vn 0.6065 -0.7071 -0.3635
vn 0.6065 0.7071 -0.3635
vn -0.5140 0.6480 0.5620
vn -0.5140 -0.6480 0.5620
vn 0.7920 -0.5773 0.1983
vn 0.7920 0.5773 0.1983
vn -0.7620 0.6339 0.1319
vn -0.7620 -0.6339 0.1319
vn -0.6359 0.6282 -0.4484
vn -0.6359 -0.6282 -0.4484
usemtl Material
s 1
f 15//1 19//2 20//3 16//4
f 1//5 4//6 3//7 2//8
f 5//9 11//9 12//10 6//10
f 2//8 10//11 9//12 1//5
f 1//5 9//12 11//9 5//9
f 6//10 12//10 10//11 2//8
f 8//13 5//9 6//10 7//14
f 4//6 8//13 7//14 3//7
f 3//7 7//14 6//10 2//8
f 11//9 15//1 16//4 12//10
f 1//5 5//9 8//13 4//6
f 10//11 14//15 13//16 9//12
f 12//10 16//4 14//15 10//11
f 9//12 13//16 15//1 11//9
f 18//17 20//3 19//2 17//18
f 14//15 18//17 17//18 13//16
f 16//4 20//3 18//17 14//15
f 13//16 17//18 19//2 15//1
f 35//19 39//20 40//21 36//22
f 21//23 24//24 23//25 22//26
f 25//27 31//27 32//28 26//28
f 22//26 30//29 29//30 21//23
f 21//23 29//30 31//27 25//27
f 26//28 32//28 30//29 22//26
f 28//31 25//27 26//28 27//32
f 24//24 28//31 27//32 23//25
f 23//25 27//32 26//28 22//26
f 31//27 35//19 36//22 32//28
f 21//23 25//27 28//31 24//24
f 30//29 34//33 33//34 29//30
f 32//28 36//22 34//33 30//29
f 29//30 33//34 35//19 31//27
f 38//35 40//21 39//20 37//36
f 34//33 38//35 37//36 33//34
f 36//22 40//21 38//35 34//33
f 33//34 37//36 39//20 35//19
f 55//37 59//38 60//39 56//40
f 41//41 44//42 43//43 42//44
f 45//45 51//45 52//46 46//46
f 42//44 50//47 49//48 41//41
f 41//41 49//48 51//45 45//45
f 46//46 52//46 50//47 42//44
f 48//49 45//45 46//46 47//50
f 44//42 48//49 47//50 43//43
f 43//43 47//50 46//46 42//44
f 51//45 55//37 56//40 52//46
f 41//41 45//45 48//49 44//42
f 50//47 54//51 53//52 49//48
f 52//46 56//40 54//51 50//47
f 49//48 53//52 55//37 51//45
f 58//53 60//39 59//38 57//54
f 54//51 58//53 57//54 53//52
f 56//40 60//39 58//53 54//51
f 53//52 57//54 59//38 55//37
